<?xml version="1.0" encoding="UTF-8" standalone="no"?>
<!-- Generator: Adobe Illustrator 16.0.4, SVG Export Plug-In . SVG Version: 6.00 Build 0)  -->

<svg
   xmlns:dc="http://purl.org/dc/elements/1.1/"
   xmlns:cc="http://creativecommons.org/ns#"
   xmlns:rdf="http://www.w3.org/1999/02/22-rdf-syntax-ns#"
   xmlns:svg="http://www.w3.org/2000/svg"
   xmlns="http://www.w3.org/2000/svg"
   xmlns:sodipodi="http://sodipodi.sourceforge.net/DTD/sodipodi-0.dtd"
   xmlns:inkscape="http://www.inkscape.org/namespaces/inkscape"
   version="1.1"
   id="Capa_1"
   x="0px"
   y="0px"
   width="46.161415"
   height="44.185001"
   viewBox="0 0 46.161415 44.185001"
   enable-background="new 0 0 64 64"
   xml:space="preserve"
   inkscape:version="0.91 r13725"
   sodipodi:docname="wikizen.svg"><metadata
     id="metadata3407"><rdf:RDF><cc:Work
         rdf:about=""><dc:format>image/svg+xml</dc:format><dc:type
           rdf:resource="http://purl.org/dc/dcmitype/StillImage" /><dc:title></dc:title></cc:Work></rdf:RDF></metadata><defs
     id="defs3405" /><sodipodi:namedview
     pagecolor="#000000"
     bordercolor="#666666"
     borderopacity="1"
     objecttolerance="10"
     gridtolerance="10"
     guidetolerance="10"
     inkscape:pageopacity="0"
     inkscape:pageshadow="2"
     inkscape:window-width="653"
     inkscape:window-height="757"
     id="namedview3403"
     showgrid="false"
     fit-margin-top="0"
     fit-margin-left="0"
     fit-margin-right="0"
     fit-margin-bottom="0"
     inkscape:zoom="15.40625"
     inkscape:cx="23.201415"
     inkscape:cy="22.186"
     inkscape:window-x="2"
     inkscape:window-y="0"
     inkscape:window-maximized="0"
     inkscape:current-layer="Capa_1" /><g
     id="g3391"
     transform="translate(-8.7985847,-10.001)"
     style="fill:#ffffff"><path
       d="m 40.05,31.667 c -0.093,-0.258 -0.127,-0.51 -0.135,-0.76 -1.351,-0.215 -2.558,-0.695 -3.269,-1.779 -0.313,0.105 -0.635,0.195 -0.961,0.27 0.195,0.491 0.377,0.904 0.531,1.186 0.365,0.67 0.309,1.017 0.088,1.188 -0.562,0.438 -2,-0.535 -2.922,-1.271 -0.302,-0.242 -0.749,-0.556 -1.222,-0.833 l -0.209,0 c -0.387,0.414 -0.814,0.79 -1.284,1.109 0.068,0.073 0.136,0.146 0.215,0.224 2.667,2.667 3.75,4.167 0.583,6.75 -4.93,3.364 -6.103,5.957 -6.363,7.226 l 12.469,0 c -0.17,-2.398 0.25,-5.02 0.81,-5.643 2.919,-3.251 2.836,-4.417 1.669,-7.667 z"
       id="path3393"
       inkscape:connector-curvature="0"
       style="fill:#ffffff" /><path
       d="m 26.417,16.917 c 3.678,0 6.75,2.632 7.437,6.111 0.094,0.477 0.146,0.968 0.146,1.472 0,0.016 -0.002,0.031 -0.002,0.047 -0.01,1.521 -0.469,2.935 -1.252,4.12 l 0.632,0 c 0.669,0 1.32,-0.073 1.95,-0.207 0.307,-0.065 0.607,-0.146 0.902,-0.24 -0.157,-0.488 -0.252,-1.05 -0.252,-1.719 0,-0.447 0.049,-0.838 0.121,-1.202 0.6,-3.024 3.528,-3.345 6.24,-3.377 0.237,-0.823 0.371,-1.689 0.371,-2.588 0,-5.155 -4.179,-9.333 -9.333,-9.333 l -6.822,0 c -4.796,0 -8.743,3.619 -9.269,8.274 1.227,-0.854 2.714,-1.358 4.318,-1.358 l 4.813,0 z"
       id="path3395"
       inkscape:connector-curvature="0"
       style="fill:#ffffff" /><path
       d="m 49.667,45.975 -11.981,0 -12.637,0 -14.716,0 c -1.657,0 -2.03,0.928 -0.834,2.075 l 4.235,4.06 c 1.196,1.146 3.509,2.076 5.166,2.076 l 22.2,0 c 1.657,0 3.971,-0.93 5.166,-2.076 l 4.235,-4.06 c 1.196,-1.146 0.823,-2.075 -0.834,-2.075 z"
       id="path3397"
       inkscape:connector-curvature="0"
       style="fill:#ffffff" /><path
       d="m 21.605,31.083 4.812,0 c 1.343,0 2.59,-0.404 3.632,-1.094 0.152,-0.101 0.297,-0.21 0.44,-0.322 0.199,-0.157 0.391,-0.322 0.571,-0.5 0.006,-0.006 0.013,-0.013 0.02,-0.019 0.152,-0.153 0.297,-0.314 0.434,-0.481 C 32.442,27.532 33,26.081 33,24.5 33,20.864 30.053,17.917 26.417,17.917 l -4.812,0 c -1.679,0 -3.207,0.634 -4.37,1.669 -0.167,0.148 -0.325,0.305 -0.476,0.469 -0.16,0.174 -0.31,0.356 -0.451,0.547 -0.805,1.092 -1.287,2.437 -1.287,3.898 10e-4,3.636 2.948,6.583 6.584,6.583 z"
       id="path3399"
       inkscape:connector-curvature="0"
       style="fill:#ffffff" /><path
       d="m 48.68,22.918 c -0.102,0 -0.203,0 -0.306,0 l -4.812,0 c -0.103,0 -0.203,0 -0.306,0 -0.067,0 -0.133,0 -0.198,0 -0.18,0 -0.357,0.001 -0.533,0.002 -0.18,0 -0.358,0.002 -0.533,0.005 -2.824,0.056 -4.928,0.471 -5.006,3.411 -0.002,0.056 -0.008,0.106 -0.008,0.164 0,0.53 0.069,0.974 0.188,1.359 0.051,0.166 0.111,0.321 0.184,0.463 0.078,0.155 0.168,0.297 0.268,0.426 0.541,0.695 1.396,1.031 2.459,1.189 0.931,0.139 2.014,0.147 3.181,0.147 0.101,0 0.203,0 0.306,0 l 4.812,0 c 0.103,0 0.203,0 0.306,0 3.493,0 6.278,-0.05 6.278,-3.583 -0.002,-3.534 -2.786,-3.583 -6.28,-3.583 z"
       id="path3401"
       inkscape:connector-curvature="0"
       style="fill:#ffffff" /></g></svg>